{"title":"The 15 17 To Paris 2018 Movies 720p HDRip x264 5.1 +Sample ☻rDX☻","magnet":"magnet:?xt=urn:btih:34d05c49eaea929add50db6a196bd65e62c09507&dn=The+15+17+To+Paris+2018+Movies+720p+HDRip+x264+5.1+%2BSample+%E2%98%BBrDX%E2%98%BB&tr=udp%3A%2F%2Ftracker.leechers-paradise.org%3A6969&tr=udp%3A%2F%2Fzer0day.ch%3A1337&tr=udp%3A%2F%2Fopen.demonii.com%3A1337&tr=udp%3A%2F%2Ftracker.coppersurfer.tk%3A6969&tr=udp%3A%2F%2Fexodus.desync.com%3A6969","uploader":"basicssom","categoryP":"video","categoryS":"hd___movies","size":"1024349220","seeders":"1","leechers":"17","description":"----------------------------------------------------------------\r\nThe 15 17 To Paris 2018 Movies 720p HDRip x264 5.1 with Sample &#x263B;rDX&#x263B;\r\n\r\nSCREEN SHOTS &amp; POSTER:\r\n   <a href=\"\nhttp://iphonehosting.eu/2018/4/a/call/index.html\" rel=\"nofollow\" target=\"_NEW\">\nhttp://iphonehosting.eu/2018/4/a/call/index.html</a> <a href=\"\nhttp://iphonehosting.eu/2018/4/a/call/1.html\" rel=\"nofollow\" target=\"_NEW\">\nhttp://iphonehosting.eu/2018/4/a/call/1.html</a> <a href=\"\nhttp://iphonehosting.eu/2018/4/a/call/2.html\" rel=\"nofollow\" target=\"_NEW\">\nhttp://iphonehosting.eu/2018/4/a/call/2.html</a>   <a href=\"\nhttp://iphonehosting.eu/2018/4/a/call/3.html\" rel=\"nofollow\" target=\"_NEW\">\nhttp://iphonehosting.eu/2018/4/a/call/3.html</a>   <a href=\"\nhttp://iphonehosting.eu/2018/4/a/call/4.html\" rel=\"nofollow\" target=\"_NEW\">\nhttp://iphonehosting.eu/2018/4/a/call/4.html</a>   <a href=\"\nhttp://iphonehosting.eu/2018/4/a/call/5.html\" rel=\"nofollow\" target=\"_NEW\">\nhttp://iphonehosting.eu/2018/4/a/call/5.html</a>   <a href=\"\nhttp://iphonehosting.eu/2018/4/a/call/6.html\" rel=\"nofollow\" target=\"_NEW\">\nhttp://iphonehosting.eu/2018/4/a/call/6.html</a>   <a href=\"\nhttp://iphonehosting.eu/2018/4/a/call/7.html\" rel=\"nofollow\" target=\"_NEW\">\nhttp://iphonehosting.eu/2018/4/a/call/7.html</a>   <a href=\"\nhttp://iphonehosting.eu/2018/4/a/call/8.html\" rel=\"nofollow\" target=\"_NEW\">\nhttp://iphonehosting.eu/2018/4/a/call/8.html</a>   <a href=\"\nhttp://iphonehosting.eu/2018/4/a/call/9.html\" rel=\"nofollow\" target=\"_NEW\">\nhttp://iphonehosting.eu/2018/4/a/call/9.html</a>   <a href=\"\nhttp://iphonehosting.eu/2018/4/a/call/10.html\" rel=\"nofollow\" target=\"_NEW\">\nhttp://iphonehosting.eu/2018/4/a/call/10.html</a>\r\n\r\nFile size                                : 967 MiB\r\nDuration                                 : 1 h 33 min\r\nOverall bit rate                         : 1 441 kb/s\r\nMovie name                               : The 15 17 To Paris 2018 Movies 720p HDRip x264 5.1 &#x263B;rDX&#x263B;\r\n\r\nVideo\r\nID                                       : 2\r\nFormat                                   : AVC\r\nFormat/Info                              : Advanced Video Codec\r\nFormat profile                           : High@L4.1\r\nFormat settings, CABAC                   : Yes\r\nFormat settings, ReFrames                : 8 frames\r\nCodec ID                                 : V_MPEG4/ISO/AVC\r\nDuration                                 : 1 h 33 min\r\nBit rate                                 : 1 056 kb/s\r\nWidth                                    : 1 280 pixels\r\nHeight                                   : 536 pixels\r\nDisplay aspect ratio                     : 2.40:1\r\nFrame rate mode                          : Constant\r\nFrame rate                               : 23.976 (24000/1001) FPS\r\nColor space                              : YUV\r\nChroma subsampling                       : 4:2:0\r\nBit depth                                : 8 bits\r\nScan type                                : Progressive\r\nBits/(Pixel*Frame)                       : 0.064\r\nStream size                              : 690 MiB (71%)\r\nTitle                                    : &#x263B;rDX&#x263B;\r\nWriting library                          : x264\r\n\r\nAudio\r\nID                                       : 1\r\nFormat                                   : AC-3\r\nFormat/Info                              : Audio Coding 3\r\nMode extension                           : CM (complete main)\r\nFormat settings, Endianness              : Big\r\nCodec ID                                 : A_AC3\r\nDuration                                 : 1 h 33 min\r\nBit rate mode                            : Constant\r\nBit rate                                 : 384 kb/s\r\nChannel(s)                               : 6 channels\r\nChannel positions                        : Front: L C R, Side: L R, LFE\r\nSampling rate                            : 48.0 kHz\r\nFrame rate                               : 31.250 FPS (1536 spf)\r\nBit depth                                : 16 bits\r\nCompression mode                         : Lossy\r\nStream size                              : 258 MiB (27%)\r\nTitle                                    : &#x263B;rDX&#x263B;\r\nDefault                                  : Yes\r\nForced                                   : No","last_updated":"2018-05-01T12:05:25.478Z","parsed":{"xt":"urn:btih:34d05c49eaea929add50db6a196bd65e62c09507","dn":"The 15 17 To Paris 2018 Movies 720p HDRip x264 5.1  Sample ☻rDX☻","tr":["udp://exodus.desync.com:6969","udp://open.demonii.com:1337","udp://tracker.coppersurfer.tk:6969","udp://tracker.leechers-paradise.org:6969","udp://zer0day.ch:1337"],"infoHash":"34d05c49eaea929add50db6a196bd65e62c09507","infoHashBuffer":{"type":"Buffer","data":[52,208,92,73,234,234,146,154,221,80,219,106,25,107,214,94,98,192,149,7]},"name":"The 15 17 To Paris 2018 Movies 720p HDRip x264 5.1  Sample ☻rDX☻","announce":["udp://exodus.desync.com:6969","udp://open.demonii.com:1337","udp://tracker.coppersurfer.tk:6969","udp://tracker.leechers-paradise.org:6969","udp://zer0day.ch:1337"],"urlList":[]}}